<?xml version="1.0" encoding="UTF-8" standalone="no"?>
<!DOCTYPE svg PUBLIC "-//W3C//DTD SVG 1.1//EN" "http://www.w3.org/Graphics/SVG/1.1/DTD/svg11.dtd">
<svg xmlns="http://www.w3.org/2000/svg" version="1.1" viewBox="444.29 78.35 519.89 566.47">
<g stroke-width="2.00" fill="none" stroke-linecap="butt">
<path stroke="#3f4757" vector-effect="non-scaling-stroke" d="
  M 840.13 274.73
  Q 838.43 277.66 839.40 282.67
  A 0.87 0.84 10.5 0 0 839.81 283.25
  Q 839.88 283.29 839.92 283.32
  A 1.07 1.07 0.0 0 1 840.38 284.20
  L 840.34 290.46"
/>
<path stroke="#3f4757" vector-effect="non-scaling-stroke" d="
  M 751.73 412.94
  Q 750.72 412.96 750.30 412.53
  A 0.37 0.37 0.0 0 1 750.25 412.09
  Q 750.69 411.33 749.76 411.25
  A 1.44 1.44 0.0 0 0 749.52 411.25
  L 733.12 412.51
  A 1.33 1.32 -64.6 0 0 732.48 412.74
  L 705.80 431.85
  A 2.31 2.31 0.0 0 1 703.00 431.77
  C 697.65 427.44 693.08 424.69 686.93 419.94
  Q 681.51 415.76 676.15 413.11
  A 3.31 3.18 -28.5 0 0 674.98 412.79
  Q 673.37 412.67 671.74 412.38
  C 670.37 412.13 667.86 412.59 665.80 412.04
  Q 660.09 410.53 656.23 412.74"
/>
<path stroke="#3f4757" vector-effect="non-scaling-stroke" d="
  M 567.52 283.28
  Q 568.71 279.78 567.55 275.12"
/>
<path stroke="#3f4757" vector-effect="non-scaling-stroke" d="
  M 860.04 276.29
  Q 857.77 277.13 857.86 279.27
  Q 858.32 289.88 858.43 291.74
  Q 858.58 294.42 859.10 295.87
  C 861.45 302.36 864.71 308.70 866.69 315.39
  Q 870.44 328.08 872.64 341.14
  Q 874.98 354.97 874.88 367.46
  Q 874.70 388.90 870.33 409.65
  A 0.76 0.75 3.0 0 0 871.15 410.55
  L 881.95 409.39"
/>
<path stroke="#3f4757" vector-effect="non-scaling-stroke" d="
  M 871.58 435.96
  Q 864.96 436.62 859.99 438.84
  A 3.40 3.38 0.2 0 0 858.31 440.50
  Q 847.28 464.41 829.56 483.42
  C 824.10 489.28 818.26 494.29 811.82 500.27
  Q 809.76 502.19 807.68 503.73
  C 803.61 506.76 800.51 509.43 796.68 511.49
  C 791.58 514.22 786.58 517.84 780.78 520.74
  Q 762.15 530.09 747.60 534.03
  Q 733.38 537.89 713.02 539.27
  Q 701.81 540.03 691.44 538.99
  Q 678.13 537.65 670.01 535.97
  Q 650.60 531.95 632.06 523.00
  C 627.72 520.91 621.02 516.82 617.64 514.93
  C 612.99 512.33 608.55 508.54 603.86 506.24
  A 5.19 5.12 -11.7 0 1 602.84 505.58
  Q 585.54 490.90 576.77 480.89
  Q 569.52 472.61 566.77 468.48
  Q 566.73 468.41 558.52 455.85
  C 555.49 451.20 553.63 447.04 550.99 442.26
  Q 549.65 439.83 548.21 439.03
  Q 543.82 436.57 537.26 435.67"
/>
<path stroke="#3f4757" vector-effect="non-scaling-stroke" d="
  M 528.08 409.61
  L 537.35 410.31
  A 0.86 0.85 -2.6 0 0 538.26 409.32
  C 536.92 401.39 534.84 393.09 534.21 385.54
  Q 531.65 354.88 538.71 325.72
  Q 540.40 318.74 549.26 296.04
  Q 550.71 292.32 550.15 284.68
  A 2.84 1.74 64.1 0 1 550.15 284.33
  L 550.71 277.11
  A 0.80 0.78 12.5 0 0 550.20 276.32
  Q 549.30 276.00 548.94 275.55"
/>
<path stroke="#3f4757" vector-effect="non-scaling-stroke" d="
  M 651.64 207.67
  Q 650.31 206.36 648.25 207.14
  Q 645.62 208.14 642.96 209.19
  C 641.09 209.92 639.77 210.96 638.04 211.47
  Q 636.57 211.90 634.29 213.01
  C 626.10 216.98 620.75 219.23 614.80 223.44
  Q 609.88 226.92 602.59 231.83
  A 3.47 3.47 0.0 0 1 600.13 232.39
  Q 597.70 232.02 595.21 232.86"
/>
<path stroke="#3f4757" vector-effect="non-scaling-stroke" d="
  M 805.32 234.42
  L 805.25 231.91
  A 0.93 0.92 16.9 0 0 804.85 231.17
  Q 798.90 227.16 792.92 223.12
  C 783.04 216.43 770.78 211.29 759.03 206.66
  A 1.56 1.56 0.0 0 0 756.89 208.02
  L 756.81 209.21"
/>
</g>
<path fill="#5a2672" d="
  M 840.13 274.73
  Q 838.43 277.66 839.40 282.67
  A 0.87 0.84 10.5 0 0 839.81 283.25
  Q 839.88 283.29 839.92 283.32
  A 1.07 1.07 0.0 0 1 840.38 284.20
  L 840.34 290.46
  L 840.41 398.72
  A 0.33 0.32 -87.6 0 1 840.06 399.05
  Q 822.53 397.87 805.06 400.13
  C 785.17 402.71 769.61 405.80 751.73 412.94
  Q 750.72 412.96 750.30 412.53
  A 0.37 0.37 0.0 0 1 750.25 412.09
  Q 750.69 411.33 749.76 411.25
  A 1.44 1.44 0.0 0 0 749.52 411.25
  L 733.12 412.51
  A 1.33 1.32 -64.6 0 0 732.48 412.74
  L 705.80 431.85
  A 2.31 2.31 0.0 0 1 703.00 431.77
  C 697.65 427.44 693.08 424.69 686.93 419.94
  Q 681.51 415.76 676.15 413.11
  A 3.31 3.18 -28.5 0 0 674.98 412.79
  Q 673.37 412.67 671.74 412.38
  C 670.37 412.13 667.86 412.59 665.80 412.04
  Q 660.09 410.53 656.23 412.74
  Q 637.86 405.82 627.33 403.88
  C 606.92 400.11 588.21 397.85 568.40 398.89
  A 0.73 0.72 88.2 0 1 567.63 398.16
  L 567.52 283.28
  Q 568.71 279.78 567.55 275.12
  L 567.68 254.90
  A 0.62 0.60 2.6 0 1 568.35 254.30
  Q 579.33 255.39 590.45 258.14
  A 0.57 0.56 6.9 0 0 591.15 257.60
  L 591.15 239.79
  A 0.81 0.80 -85.7 0 1 592.07 238.99
  C 612.70 242.17 630.56 246.06 650.10 255.77
  Q 657.78 259.59 663.63 262.80
  A 0.31 0.31 0.0 0 0 664.09 262.53
  L 664.09 238.62
  A 4.98 4.91 -60.4 0 0 663.42 236.13
  C 660.44 230.96 657.57 225.62 657.56 220.01
  Q 657.47 179.05 657.48 171.98
  Q 657.49 165.81 658.60 160.05
  Q 661.71 143.85 665.92 125.91
  C 666.35 124.08 667.22 123.03 669.17 123.31
  A 2.57 2.56 -1.4 0 1 671.32 125.35
  Q 673.45 135.89 676.78 149.72
  A 0.44 0.44 0.0 0 0 677.62 149.79
  L 701.53 93.67
  A 0.30 0.28 60.7 0 0 701.56 93.54
  L 701.56 80.77
  A 2.42 2.41 -90.0 0 1 703.97 78.35
  L 704.84 78.35
  A 2.30 2.29 89.5 0 1 707.13 80.61
  Q 707.26 87.06 707.23 91.50
  C 707.21 94.54 708.55 97.39 709.88 100.21
  Q 711.16 102.92 716.70 116.25
  C 721.44 127.63 726.15 137.74 731.27 149.98
  A 0.37 0.36 -49.8 0 0 731.96 149.92
  Q 734.37 139.85 737.04 127.36
  Q 737.58 124.83 737.79 124.41
  C 738.90 122.20 742.24 123.52 742.70 125.54
  Q 747.21 145.21 750.42 161.26
  Q 751.46 166.46 751.49 172.42
  Q 751.57 193.09 751.25 221.58
  A 8.73 8.71 -36.6 0 1 750.89 223.99
  Q 749.07 230.01 745.40 236.10
  Q 744.26 238.00 744.38 242.50
  Q 744.42 243.82 744.56 262.05
  A 0.47 0.46 -14.7 0 0 745.25 262.45
  Q 778.85 243.70 816.96 239.01
  A 0.20 0.20 0.0 0 1 817.19 239.21
  L 817.19 257.50
  A 0.31 0.31 0.0 0 0 817.55 257.81
  L 839.77 254.04
  A 0.54 0.53 85.4 0 1 840.39 254.57
  L 840.13 274.73
  Z
  M 739.94 163.71
  Q 743.63 163.74 743.71 163.73
  A 0.74 0.74 0.0 0 0 744.34 163.12
  Q 744.42 162.64 743.50 158.00
  Q 740.23 141.50 740.12 141.49
  Q 740.01 141.49 736.47 157.95
  Q 735.48 162.57 735.55 163.05
  A 0.74 0.74 0.0 0 0 736.17 163.67
  Q 736.25 163.68 739.94 163.71
  Z
  M 664.14 163.39
  A 0.31 0.31 0.0 0 0 664.45 163.76
  L 673.38 163.57
  A 0.31 0.31 0.0 0 0 673.68 163.19
  L 668.78 142.63
  A 0.31 0.31 0.0 0 0 668.17 142.65
  L 664.14 163.39
  Z
  M 701.23 166.39
  L 707.37 166.43
  A 0.42 0.42 0.0 0 0 707.79 166.01
  L 707.91 149.66
  A 5.89 3.39 -89.6 0 0 704.56 143.75
  L 704.36 143.75
  A 5.89 3.39 -89.6 0 0 700.93 149.62
  L 700.81 165.97
  A 0.42 0.42 0.0 0 0 701.23 166.39
  Z
  M 674.2956 170.3750
  A 0.54 0.54 0.0 0 0 673.7499 169.8407
  L 664.2305 169.9404
  A 0.54 0.54 0.0 0 0 663.6961 170.4860
  L 663.8844 188.4650
  A 0.54 0.54 0.0 0 0 664.4301 188.9993
  L 673.9495 188.8996
  A 0.54 0.54 0.0 0 0 674.4839 188.3540
  L 674.2956 170.3750
  Z
  M 744.8883 170.5133
  A 0.57 0.57 0.0 0 0 744.3254 169.9364
  L 735.2060 169.8250
  A 0.57 0.57 0.0 0 0 734.6291 170.3880
  L 734.4117 188.1867
  A 0.57 0.57 0.0 0 0 734.9746 188.7636
  L 744.0940 188.8750
  A 0.57 0.57 0.0 0 0 744.6709 188.3120
  L 744.8883 170.5133
  Z
  M 728.12 173.01
  A 0.80 0.80 0.0 0 0 727.32 172.21
  L 681.20 172.21
  A 0.80 0.80 0.0 0 0 680.40 173.01
  L 680.40 177.49
  A 0.80 0.80 0.0 0 0 681.20 178.29
  L 727.32 178.29
  A 0.80 0.80 0.0 0 0 728.12 177.49
  L 728.12 173.01
  Z
  M 728.32 184.70
  A 0.69 0.69 0.0 0 0 727.63 184.01
  L 680.85 184.01
  A 0.69 0.69 0.0 0 0 680.16 184.70
  L 680.16 188.16
  A 0.69 0.69 0.0 0 0 680.85 188.85
  L 727.63 188.85
  A 0.69 0.69 0.0 0 0 728.32 188.16
  L 728.32 184.70
  Z
  M 704.35 198.31
  Q 705.52 198.31 707.28 198.68
  Q 719.12 201.15 727.59 209.25
  A 0.42 0.42 0.0 0 0 728.30 208.95
  L 728.30 195.57
  A 0.62 0.62 0.0 0 0 727.73 194.96
  Q 722.80 194.55 704.35 194.53
  Q 685.89 194.52 680.96 194.92
  A 0.62 0.62 0.0 0 0 680.39 195.53
  L 680.38 208.91
  A 0.42 0.42 0.0 0 0 681.08 209.22
  Q 689.57 201.13 701.41 198.68
  Q 703.17 198.31 704.35 198.31
  Z
  M 674.4805 195.6810
  A 0.87 0.87 0.0 0 0 673.6075 194.8141
  L 664.4275 194.8461
  A 0.87 0.87 0.0 0 0 663.5606 195.7191
  L 663.6395 218.3190
  A 0.87 0.87 0.0 0 0 664.5125 219.1859
  L 673.6925 219.1539
  A 0.87 0.87 0.0 0 0 674.5594 218.2809
  L 674.4805 195.6810
  Z
  M 745.0192 195.6268
  A 0.73 0.73 0.0 0 0 744.2943 194.8917
  L 735.2945 194.8289
  A 0.73 0.73 0.0 0 0 734.5594 195.5538
  L 734.4008 218.2732
  A 0.73 0.73 0.0 0 0 735.1257 219.0083
  L 744.1255 219.0711
  A 0.73 0.73 0.0 0 0 744.8606 218.3462
  L 745.0192 195.6268
  Z
  M 704.44 297.21
  Q 704.61 297.21 704.75 297.12
  Q 707.30 295.59 707.37 292.28
  Q 707.48 286.79 707.33 279.60
  C 707.19 272.38 708.65 267.22 714.71 263.92
  C 721.14 260.42 726.94 267.47 728.83 272.86
  A 0.33 0.33 0.0 0 0 729.34 273.02
  L 737.64 267.08
  A 1.37 1.37 0.0 0 0 738.21 265.97
  L 738.21 239.81
  A 3.51 3.47 20.2 0 0 736.96 237.14
  C 732.41 233.32 731.38 227.48 729.18 221.55
  C 725.76 212.32 715.82 206.86 706.63 204.12
  Q 705.08 203.67 704.31 203.67
  Q 703.55 203.67 702.00 204.13
  C 692.82 206.89 682.89 212.38 679.50 221.62
  C 677.31 227.55 676.30 233.40 671.76 237.23
  A 3.51 3.47 -20.4 0 0 670.52 239.90
  L 670.59 266.06
  A 1.37 1.37 0.0 0 0 671.16 267.17
  L 679.48 273.09
  A 0.33 0.33 0.0 0 0 679.99 272.93
  C 681.86 267.53 687.64 260.47 694.08 263.95
  C 700.15 267.23 701.62 272.39 701.50 279.61
  Q 701.37 286.80 701.50 292.29
  Q 701.58 295.60 704.13 297.13
  Q 704.27 297.21 704.44 297.21
  Z
  M 672.29 225.56
  A 0.66 0.66 0.0 0 0 671.70 224.61
  L 665.63 224.62
  A 0.66 0.66 0.0 0 0 665.04 225.58
  L 668.09 231.71
  A 0.66 0.66 0.0 0 0 669.27 231.71
  L 672.29 225.56
  Z
  M 743.83 225.20
  A 0.49 0.49 0.0 0 0 743.38 224.50
  L 736.84 224.56
  A 0.49 0.49 0.0 0 0 736.41 225.28
  L 739.75 231.86
  A 0.49 0.49 0.0 0 0 740.63 231.86
  L 743.83 225.20
  Z
  M 699.50 425.51
  A 0.25 0.25 0.0 0 0 699.84 425.28
  L 699.84 309.31
  A 0.76 0.70 42.6 0 0 699.83 309.19
  Q 699.42 307.71 698.00 305.77
  C 681.94 283.88 660.44 268.77 635.23 259.22
  C 622.92 254.56 613.29 251.63 601.04 249.46
  A 0.32 0.32 0.0 0 0 600.66 249.77
  L 600.66 373.59
  A 1.03 1.02 4.2 0 0 601.54 374.60
  Q 636.58 379.46 667.52 397.91
  C 674.71 402.19 680.84 407.30 687.47 412.79
  Q 692.71 417.13 698.85 425.12
  Q 698.98 425.30 699.50 425.51
  Z
  M 708.82 425.45
  Q 709.34 425.24 709.47 425.06
  Q 715.59 417.08 720.82 412.74
  C 727.44 407.25 733.56 402.14 740.74 397.86
  Q 771.63 379.41 806.62 374.54
  A 1.03 1.02 -4.3 0 0 807.50 373.53
  L 807.41 249.86
  A 0.32 0.32 0.0 0 0 807.03 249.55
  C 794.80 251.73 785.18 254.66 772.89 259.32
  C 747.72 268.88 726.26 283.99 710.23 305.86
  Q 708.82 307.80 708.41 309.28
  A 0.76 0.70 -42.7 0 0 708.40 309.40
  L 708.48 425.22
  A 0.25 0.25 0.0 0 0 708.82 425.45
  Z
  M 669.98 409.62
  C 666.04 406.55 661.00 404.37 657.16 402.22
  C 640.35 392.80 621.06 386.83 601.96 383.45
  C 598.39 382.82 594.29 383.06 591.94 382.60
  A 1.03 1.02 -84.6 0 1 591.11 381.59
  L 590.92 268.03
  A 0.78 0.78 0.0 0 0 590.33 267.27
  L 578.31 264.23
  A 0.64 0.63 -82.9 0 0 577.52 264.85
  L 577.52 388.68
  A 1.29 1.28 90.0 0 0 578.80 389.97
  Q 592.42 390.02 600.53 390.86
  Q 612.37 392.07 623.03 394.01
  C 637.51 396.65 652.29 401.84 665.41 407.68
  C 667.07 408.41 668.65 409.65 669.84 409.92
  A 0.17 0.17 0.0 0 0 669.98 409.62
  Z
  M 737.40 410.42
  Q 737.69 410.36 737.80 410.29
  C 744.95 406.02 750.73 404.28 761.49 400.48
  Q 772.05 396.74 783.49 394.51
  Q 806.45 390.04 830.03 389.97
  A 0.75 0.75 0.0 0 0 830.77 389.22
  L 830.77 265.10
  A 0.69 0.69 0.0 0 0 829.93 264.43
  L 818.19 267.08
  A 1.28 1.28 0.0 0 0 817.20 268.33
  L 817.20 381.96
  A 0.43 0.43 0.0 0 1 816.78 382.39
  Q 809.45 382.53 802.52 384.05
  C 788.04 387.24 773.45 391.04 760.32 397.41
  Q 746.04 404.34 737.28 410.13
  A 0.16 0.16 0.0 0 0 737.40 410.42
  Z
  M 695.28 287.85
  C 695.72 280.91 696.69 273.35 692.03 269.19
  A 2.30 2.30 0.0 0 0 688.61 269.60
  Q 686.16 273.15 686.00 278.33
  A 0.79 0.79 0.0 0 0 686.23 278.91
  L 695.16 287.89
  A 0.07 0.07 0.0 0 0 695.28 287.85
  Z
  M 713.83 287.33
  L 722.48 278.72
  A 1.09 1.08 -20.8 0 0 722.81 277.99
  Q 723.02 274.42 721.45 271.47
  C 719.91 268.56 717.88 267.40 715.50 270.34
  C 712.05 274.60 712.46 282.33 713.01 287.04
  A 0.48 0.48 0.0 0 0 713.83 287.33
  Z"
/>
<path fill="#24673b" d="
  M 687.45 110.85
  A 0.45 0.45 0.0 0 1 687.87 111.45
  Q 685.96 116.74 682.14 124.89
  C 681.19 126.92 680.81 128.37 678.72 129.59
  A 0.60 0.60 0.0 0 1 677.82 129.14
  Q 677.36 125.21 675.97 122.34
  C 673.07 116.38 666.34 116.06 662.12 120.63
  C 660.51 122.37 659.97 126.30 659.64 128.93
  A 0.47 0.46 -86.5 0 1 659.18 129.34
  L 603.58 129.34
  A 3.34 3.32 -65.8 0 0 601.36 130.19
  C 597.40 133.77 594.23 137.48 589.46 142.25
  Q 567.24 164.48 462.49 269.49
  C 461.43 270.56 461.74 273.81 461.74 275.21
  Q 461.54 387.53 461.84 481.87
  A 1.69 1.67 -67.8 0 0 462.33 483.06
  L 528.82 549.88
  A 0.58 0.58 0.0 0 1 528.41 550.86
  L 505.53 550.86
  A 3.70 3.69 -22.5 0 1 502.92 549.78
  Q 481.91 528.68 446.51 492.48
  Q 444.85 490.78 444.68 488.49
  Q 444.28 483.15 444.29 477.75
  C 444.43 414.47 444.34 350.13 444.36 263.16
  A 2.46 2.46 0.0 0 1 445.08 261.42
  L 595.03 111.46
  A 2.13 2.10 -66.9 0 1 596.51 110.85
  L 687.45 110.85
  Z"
/>
<path fill="#24673b" d="
  M 879.46 550.10
  C 883.09 546.92 886.42 543.19 892.48 537.22
  C 910.66 519.32 928.39 501.23 945.11 484.11
  C 947.43 481.74 946.79 475.97 946.77 473.25
  Q 946.65 450.18 946.63 278.01
  C 946.63 275.28 947.16 270.49 944.62 268.13
  Q 940.45 264.25 919.22 243.04
  Q 859.05 182.91 807.33 130.54
  A 3.99 3.95 -22.2 0 0 804.51 129.37
  L 749.57 129.37
  A 0.57 0.57 0.0 0 1 749.01 128.91
  C 747.98 123.74 746.99 118.54 740.91 117.69
  C 733.99 116.72 731.74 123.79 730.52 128.93
  A 0.82 0.82 0.0 0 1 729.01 129.14
  Q 724.43 120.86 720.84 111.13
  A 0.25 0.25 0.0 0 1 721.07 110.80
  L 811.19 110.80
  A 4.58 4.56 67.4 0 1 814.42 112.14
  L 963.29 261.76
  A 2.40 2.40 0.0 0 1 963.97 263.13
  Q 964.16 264.59 964.16 268.50
  Q 963.97 377.72 964.18 475.25
  Q 964.19 481.09 963.79 488.50
  Q 963.68 490.45 962.33 491.84
  C 942.99 511.70 924.52 529.86 905.09 549.76
  A 2.88 2.87 -67.9 0 1 903.02 550.64
  L 879.66 550.64
  A 0.31 0.31 0.0 0 1 879.46 550.10
  Z"
/>
<path fill="#5a2672" d="
  M 651.64 207.67
  Q 650.31 206.36 648.25 207.14
  Q 645.62 208.14 642.96 209.19
  C 641.09 209.92 639.77 210.96 638.04 211.47
  Q 636.57 211.90 634.29 213.01
  C 626.10 216.98 620.75 219.23 614.80 223.44
  Q 609.88 226.92 602.59 231.83
  A 3.47 3.47 0.0 0 1 600.13 232.39
  Q 597.70 232.02 595.21 232.86
  L 586.50 232.25
  A 0.39 0.39 0.0 0 1 586.29 231.56
  Q 593.60 225.83 598.30 222.33
  Q 622.17 204.55 651.36 195.31
  A 0.42 0.42 0.0 0 1 651.90 195.72
  L 651.64 207.67
  Z"
/>
<path fill="#5a2672" d="
  M 805.32 234.42
  L 805.25 231.91
  A 0.93 0.92 16.9 0 0 804.85 231.17
  Q 798.90 227.16 792.92 223.12
  C 783.04 216.43 770.78 211.29 759.03 206.66
  A 1.56 1.56 0.0 0 0 756.89 208.02
  L 756.81 209.21
  L 756.59 195.91
  A 0.61 0.60 -81.4 0 1 757.38 195.32
  C 788.41 205.19 815.83 223.17 837.81 246.89
  A 0.69 0.69 0.0 0 1 837.42 248.04
  L 824.10 250.30
  A 0.58 0.58 0.0 0 1 823.43 249.73
  L 823.43 233.91
  A 1.67 1.67 0.0 0 0 821.54 232.26
  L 805.32 234.42
  Z"
/>
<path fill="#24673b" d="
  M 805.32 234.42
  Q 790.60 236.89 782.85 239.60
  Q 769.07 244.42 765.21 245.72
  Q 760.83 247.21 751.58 252.32
  Q 751.38 252.43 751.24 252.45
  Q 751.04 252.47 750.94 252.48
  A 0.42 0.42 0.0 0 1 750.48 252.06
  L 750.48 240.24
  A 5.54 5.52 -31.1 0 1 751.13 237.64
  C 753.24 233.71 755.33 229.76 756.19 226.33
  Q 756.71 224.27 756.76 221.07
  Q 756.84 215.13 756.81 209.21
  L 756.89 208.02
  A 1.56 1.56 0.0 0 1 759.03 206.66
  C 770.78 211.29 783.04 216.43 792.92 223.12
  Q 798.90 227.16 804.85 231.17
  A 0.93 0.92 16.9 0 1 805.25 231.91
  L 805.32 234.42
  Z"
/>
<path fill="#24673b" d="
  M 651.64 207.67
  Q 651.80 215.01 651.65 222.25
  C 651.55 226.85 655.36 234.18 657.62 238.59
  A 5.36 5.27 31.9 0 1 658.20 241.00
  L 658.20 252.13
  A 0.53 0.53 0.0 0 1 657.43 252.60
  Q 637.43 242.19 615.25 236.73
  Q 609.94 235.43 595.21 232.86
  Q 597.70 232.02 600.13 232.39
  A 3.47 3.47 0.0 0 0 602.59 231.83
  Q 609.88 226.92 614.80 223.44
  C 620.75 219.23 626.10 216.98 634.29 213.01
  Q 636.57 211.90 638.04 211.47
  C 639.77 210.96 641.09 209.92 642.96 209.19
  Q 645.62 208.14 648.25 207.14
  Q 650.31 206.36 651.64 207.67
  Z"
/>
<path fill="#5a2672" d="
  M 703.5473 212.0856
  A 23.27 22.82 -92.1 0 1 727.2047 234.5038
  A 23.27 22.82 -92.1 0 1 705.2527 258.5944
  A 23.27 22.82 -92.1 0 1 681.5953 236.1762
  A 23.27 22.82 -92.1 0 1 703.5473 212.0856
  Z
  M 703.0482 217.9319
  A 17.62 17.00 -94.4 0 0 687.4501 236.8042
  A 17.62 17.00 -94.4 0 0 705.7518 253.0681
  A 17.62 17.00 -94.4 0 0 721.3499 234.1958
  A 17.62 17.00 -94.4 0 0 703.0482 217.9319
  Z"
/>
<path fill="#5a2672" d="
  M 705.44 221.08
  C 707.29 224.22 706.86 227.54 706.95 232.72
  A 3.56 3.52 22.4 0 0 707.99 235.17
  L 714.02 241.20
  A 1.34 1.33 46.0 0 1 713.99 243.12
  L 713.80 243.30
  A 2.69 2.68 41.9 0 1 710.34 243.48
  L 703.25 238.09
  A 4.12 4.10 -71.6 0 1 701.62 234.81
  L 701.62 225.04
  A 2.13 2.04 55.1 0 1 701.72 224.40
  Q 702.35 222.42 704.66 220.90
  A 0.56 0.55 -31.6 0 1 705.44 221.08
  Z"
/>
<path fill="#5a2672" d="
  M 584.42 250.35
  L 570.83 248.00
  A 0.58 0.58 0.0 0 1 570.52 247.02
  L 584.11 233.43
  A 0.58 0.58 0.0 0 1 585.10 233.84
  L 585.10 249.78
  A 0.58 0.58 0.0 0 1 584.42 250.35
  Z"
/>
<path fill="#5a2672" d="
  M 846.38 257.51
  A 0.33 0.33 0.0 0 1 846.98 257.31
  L 853.84 266.89
  A 0.49 0.49 0.0 0 1 853.48 267.67
  L 846.92 268.17
  A 0.50 0.49 87.4 0 1 846.38 267.67
  L 846.38 257.51
  Z"
/>
<path fill="#5a2672" d="
  M 561.83 257.90
  L 561.81 267.75
  A 0.49 0.48 -87.3 0 1 561.29 268.23
  L 554.93 267.74
  A 0.48 0.48 0.0 0 1 554.58 266.98
  L 561.25 257.70
  A 0.32 0.32 0.0 0 1 561.83 257.90
  Z"
/>
<path fill="#5a2672" d="
  M 693.33 409.22
  A 0.25 0.25 0.0 0 1 692.91 409.40
  C 670.84 387.54 640.28 373.33 609.87 367.25
  A 0.74 0.73 5.8 0 1 609.28 366.53
  L 609.28 260.36
  A 0.53 0.53 0.0 0 1 609.92 259.84
  Q 635.32 265.22 657.37 277.68
  Q 678.73 289.75 692.62 309.68
  A 3.98 3.90 28.0 0 1 693.33 311.93
  L 693.33 409.22
  Z"
/>
<path fill="#5a2672" d="
  M 714.90 409.04
  L 715.00 311.90
  A 3.97 3.90 -27.9 0 1 715.71 309.65
  Q 729.61 289.76 750.95 277.73
  Q 772.98 265.32 798.34 259.97
  A 0.53 0.53 0.0 0 1 798.98 260.49
  L 798.87 366.50
  A 0.74 0.73 -5.7 0 1 798.28 367.22
  C 767.91 373.26 737.38 387.42 715.32 409.22
  A 0.25 0.25 0.0 0 1 714.90 409.04
  Z"
/>
<path fill="#24673b" d="
  M 567.55 275.12
  Q 568.71 279.78 567.52 283.28
  L 558.05 282.63
  A 0.50 0.49 -87.9 0 0 557.52 283.13
  L 557.52 408.59
  A 0.91 0.90 -4.6 0 0 558.57 409.48
  Q 586.19 404.76 614.25 407.25
  Q 637.89 409.34 656.73 415.52
  Q 661.60 417.12 670.86 420.32
  A 0.27 0.26 21.8 0 0 671.19 420.18
  L 671.30 419.95
  A 0.05 0.04 27.1 0 0 671.28 419.90
  L 656.23 412.74
  Q 660.09 410.53 665.80 412.04
  C 667.86 412.59 670.37 412.13 671.74 412.38
  Q 673.37 412.67 674.98 412.79
  A 3.31 3.18 -28.5 0 1 676.15 413.11
  Q 681.51 415.76 686.93 419.94
  C 693.08 424.69 697.65 427.44 703.00 431.77
  A 2.31 2.31 0.0 0 0 705.80 431.85
  L 732.48 412.74
  A 1.33 1.32 -64.6 0 1 733.12 412.51
  L 749.52 411.25
  A 1.44 1.44 0.0 0 1 749.76 411.25
  Q 750.69 411.33 750.25 412.09
  A 0.37 0.37 0.0 0 0 750.30 412.53
  Q 750.72 412.96 751.73 412.94
  L 737.79 419.43
  A 0.08 0.07 75.1 0 0 737.75 419.51
  L 737.77 419.76
  A 0.22 0.21 78.6 0 0 738.05 419.95
  Q 756.81 413.65 762.79 412.30
  Q 780.74 408.24 803.51 406.81
  Q 821.32 405.69 837.25 407.81
  Q 846.03 408.98 850.29 409.35
  A 0.53 0.52 -87.5 0 0 850.86 408.82
  L 850.86 283.21
  A 0.61 0.60 87.8 0 0 850.21 282.60
  L 841.28 283.29
  A 0.80 0.79 -1.2 0 0 840.54 284.06
  L 840.34 290.46
  L 840.38 284.20
  A 1.07 1.07 0.0 0 0 839.92 283.32
  Q 839.88 283.29 839.81 283.25
  A 0.87 0.84 10.5 0 1 839.40 282.67
  Q 838.43 277.66 840.13 274.73
  L 857.54 273.37
  A 1.15 1.12 64.0 0 1 858.41 273.68
  Q 859.55 274.75 860.04 276.29
  Q 857.77 277.13 857.86 279.27
  Q 858.32 289.88 858.43 291.74
  Q 858.58 294.42 859.10 295.87
  C 861.45 302.36 864.71 308.70 866.69 315.39
  Q 870.44 328.08 872.64 341.14
  Q 874.98 354.97 874.88 367.46
  Q 874.70 388.90 870.33 409.65
  A 0.76 0.75 3.0 0 0 871.15 410.55
  L 881.95 409.39
  L 905.00 406.78
  A 0.84 0.84 0.0 0 1 905.91 407.84
  C 903.47 416.70 897.26 422.78 889.23 427.48
  Q 883.30 430.96 871.58 435.96
  Q 864.96 436.62 859.99 438.84
  A 3.40 3.38 0.2 0 0 858.31 440.50
  Q 847.28 464.41 829.56 483.42
  C 824.10 489.28 818.26 494.29 811.82 500.27
  Q 809.76 502.19 807.68 503.73
  C 803.61 506.76 800.51 509.43 796.68 511.49
  C 791.58 514.22 786.58 517.84 780.78 520.74
  Q 762.15 530.09 747.60 534.03
  Q 733.38 537.89 713.02 539.27
  Q 701.81 540.03 691.44 538.99
  Q 678.13 537.65 670.01 535.97
  Q 650.60 531.95 632.06 523.00
  C 627.72 520.91 621.02 516.82 617.64 514.93
  C 612.99 512.33 608.55 508.54 603.86 506.24
  A 5.19 5.12 -11.7 0 1 602.84 505.58
  Q 585.54 490.90 576.77 480.89
  Q 569.52 472.61 566.77 468.48
  Q 566.73 468.41 558.52 455.85
  C 555.49 451.20 553.63 447.04 550.99 442.26
  Q 549.65 439.83 548.21 439.03
  Q 543.82 436.57 537.26 435.67
  Q 527.98 431.90 519.19 426.77
  C 515.16 424.42 512.11 421.33 508.65 418.42
  A 3.96 3.86 -86.9 0 1 507.88 417.54
  L 501.97 408.12
  A 0.81 0.81 0.0 0 1 502.74 406.89
  L 528.08 409.61
  L 537.35 410.31
  A 0.86 0.85 -2.6 0 0 538.26 409.32
  C 536.92 401.39 534.84 393.09 534.21 385.54
  Q 531.65 354.88 538.71 325.72
  Q 540.40 318.74 549.26 296.04
  Q 550.71 292.32 550.15 284.68
  A 2.84 1.74 64.1 0 1 550.15 284.33
  L 550.71 277.11
  A 0.80 0.78 12.5 0 0 550.20 276.32
  Q 549.30 276.00 548.94 275.55
  Q 549.51 274.21 550.36 273.55
  A 1.20 1.18 -60.3 0 1 551.21 273.31
  L 567.55 275.12
  Z
  M 733.96 464.38
  C 737.27 464.12 740.91 462.82 744.47 462.51
  Q 750.53 461.99 756.77 464.48
  Q 758.45 465.15 761.04 465.13
  A 1.75 1.74 -67.0 0 0 762.26 464.63
  Q 776.33 451.08 793.57 438.58
  C 804.32 430.80 816.31 425.54 829.26 423.98
  Q 831.49 423.71 833.04 423.86
  A 0.39 0.39 0.0 0 1 833.13 424.61
  C 827.71 426.59 822.55 427.97 818.01 430.41
  Q 809.45 434.99 800.87 440.48
  A 0.24 0.24 0.0 0 0 801.05 440.91
  Q 812.88 438.57 826.84 437.34
  Q 836.25 436.52 840.62 435.81
  C 859.44 432.76 880.52 428.35 894.18 414.38
  A 0.26 0.26 0.0 0 0 893.92 413.95
  Q 888.43 415.43 883.25 415.99
  C 863.41 418.15 841.02 418.65 825.02 419.50
  C 800.45 420.79 778.29 434.71 756.75 448.73
  Q 741.69 458.53 733.76 463.81
  A 0.31 0.31 0.0 0 0 733.96 464.38
  Z
  M 694.90 483.79
  Q 692.48 485.86 691.88 486.16
  Q 682.78 490.70 678.06 493.51
  Q 671.25 497.56 666.80 498.97
  Q 657.24 502.01 649.88 502.84
  Q 644.26 503.47 639.01 504.15
  A 0.79 0.79 0.0 0 0 638.52 505.45
  Q 643.07 510.69 649.27 513.13
  A 5.35 5.32 53.1 0 0 651.69 513.48
  Q 657.09 513.03 658.72 512.49
  Q 670.65 508.55 685.24 510.39
  Q 694.88 511.60 707.47 510.35
  Q 714.41 509.66 720.02 507.57
  C 728.48 504.42 734.40 499.74 742.99 493.27
  Q 748.70 488.98 756.50 487.89
  Q 760.03 487.39 764.85 488.67
  C 771.57 490.45 775.17 491.40 779.59 495.30
  A 0.45 0.45 0.0 0 0 780.33 495.05
  C 781.17 490.43 778.94 486.85 774.70 485.19
  C 771.70 484.01 765.96 481.15 764.42 479.08
  C 759.70 472.76 756.23 468.19 747.52 468.21
  Q 742.80 468.21 740.88 468.65
  Q 726.38 471.97 726.05 472.05
  Q 715.51 474.43 705.27 470.22
  Q 693.70 465.45 684.30 459.19
  Q 660.70 443.48 651.89 437.69
  Q 637.53 428.25 629.67 425.29
  Q 616.55 420.35 601.67 419.88
  Q 570.11 418.88 549.50 417.79
  Q 536.63 417.10 522.73 415.57
  Q 518.61 415.11 514.91 414.18
  A 0.28 0.28 0.0 0 0 514.65 414.66
  C 526.84 425.98 543.12 431.10 560.03 434.27
  C 565.65 435.33 572.06 436.26 578.41 436.87
  C 594.82 438.43 605.84 438.70 618.39 445.83
  C 632.26 453.71 646.71 464.66 658.56 472.74
  Q 665.07 477.18 671.48 482.78
  Q 673.56 484.60 674.67 487.16
  A 1.27 1.27 0.0 0 0 676.29 487.85
  Q 684.97 484.62 694.67 483.29
  A 0.29 0.29 0.0 0 1 694.90 483.79
  Z"
/>
<path fill="#5a2672" d="
  M 548.94 275.55
  Q 549.30 276.00 550.20 276.32
  A 0.80 0.78 12.5 0 1 550.71 277.11
  L 550.15 284.33
  A 2.84 1.74 64.1 0 0 550.15 284.68
  Q 550.71 292.32 549.26 296.04
  Q 540.40 318.74 538.71 325.72
  Q 531.65 354.88 534.21 385.54
  C 534.84 393.09 536.92 401.39 538.26 409.32
  A 0.86 0.85 -2.6 0 1 537.35 410.31
  L 528.08 409.61
  Q 526.99 406.20 526.42 403.13
  C 518.32 358.88 525.76 314.15 548.94 275.55
  Z"
/>
<path fill="#5a2672" d="
  M 860.04 276.29
  C 867.16 288.38 873.29 301.58 877.11 315.08
  C 878.83 321.13 880.52 325.68 881.61 331.40
  Q 889.03 370.21 881.25 407.77
  Q 880.96 409.19 881.95 409.39
  L 871.15 410.55
  A 0.76 0.75 3.0 0 1 870.33 409.65
  Q 874.70 388.90 874.88 367.46
  Q 874.98 354.97 872.64 341.14
  Q 870.44 328.08 866.69 315.39
  C 864.71 308.70 861.45 302.36 859.10 295.87
  Q 858.58 294.42 858.43 291.74
  Q 858.32 289.88 857.86 279.27
  Q 857.77 277.13 860.04 276.29
  Z"
/>
<path fill="#5a2672" d="
  M 871.58 435.96
  C 866.98 447.95 860.83 458.89 853.85 469.41
  Q 848.98 476.77 843.41 483.45
  Q 810.81 522.49 762.62 540.09
  Q 743.94 546.91 726.48 548.67
  Q 713.78 549.94 697.75 549.63
  Q 677.27 549.24 656.09 543.14
  Q 643.48 539.51 636.52 536.50
  Q 583.66 513.65 552.41 465.89
  C 548.39 459.75 544.59 451.91 541.07 445.45
  Q 538.66 441.02 537.26 435.67
  Q 543.82 436.57 548.21 439.03
  Q 549.65 439.83 550.99 442.26
  C 553.63 447.04 555.49 451.20 558.52 455.85
  Q 566.73 468.41 566.77 468.48
  Q 569.52 472.61 576.77 480.89
  Q 585.54 490.90 602.84 505.58
  A 5.19 5.12 -11.7 0 0 603.86 506.24
  C 608.55 508.54 612.99 512.33 617.64 514.93
  C 621.02 516.82 627.72 520.91 632.06 523.00
  Q 650.60 531.95 670.01 535.97
  Q 678.13 537.65 691.44 538.99
  Q 701.81 540.03 713.02 539.27
  Q 733.38 537.89 747.60 534.03
  Q 762.15 530.09 780.78 520.74
  C 786.58 517.84 791.58 514.22 796.68 511.49
  C 800.51 509.43 803.61 506.76 807.68 503.73
  Q 809.76 502.19 811.82 500.27
  C 818.26 494.29 824.10 489.28 829.56 483.42
  Q 847.28 464.41 858.31 440.50
  A 3.40 3.38 0.2 0 1 859.99 438.84
  Q 864.96 436.62 871.58 435.96
  Z"
/>
<path fill="#24673b" d="
  M 752.38 477.85
  A 0.21 0.21 0.0 0 0 752.71 477.84
  L 752.87 477.64
  A 0.09 0.08 42.1 0 0 752.86 477.54
  Q 752.05 476.48 748.71 475.70
  A 0.43 0.43 0.0 0 1 748.73 474.85
  Q 752.86 474.09 754.41 477.78
  A 0.57 0.57 0.0 0 1 754.00 478.56
  Q 751.58 479.07 750.08 477.70
  A 0.45 0.44 -31.5 0 1 750.26 476.95
  Q 751.37 476.62 752.38 477.85
  Z"
/>
<path fill="#24673b" d="
  M 672.64 617.32
  A 0.20 0.20 0.0 0 0 672.99 617.19
  Q 673.17 599.49 672.56 584.26
  Q 672.35 579.11 665.54 578.30
  A 1.27 1.26 -86.7 0 1 664.43 577.04
  L 664.43 574.28
  A 1.01 1.01 0.0 0 1 665.44 573.27
  L 687.58 573.27
  A 1.28 1.28 0.0 0 1 688.86 574.55
  L 688.86 576.68
  A 1.54 1.54 0.0 0 1 687.45 578.21
  Q 681.48 578.74 681.17 584.48
  Q 680.57 595.64 680.75 602.87
  C 681.07 615.65 680.84 627.96 681.08 643.25
  A 0.93 0.92 -0.6 0 1 680.15 644.19
  L 674.66 644.19
  A 3.27 3.26 -19.5 0 1 672.12 642.98
  L 631.26 592.42
  A 0.25 0.25 0.0 0 0 630.81 592.58
  Q 630.89 623.54 630.97 629.86
  C 631.05 636.09 632.67 637.95 638.70 638.73
  A 1.13 1.12 3.8 0 1 639.68 639.84
  L 639.68 642.67
  A 0.86 0.85 0.0 0 1 638.82 643.52
  L 616.18 643.52
  A 1.15 1.15 0.0 0 1 615.03 642.37
  L 615.03 640.56
  A 1.67 1.66 -3.1 0 1 616.52 638.91
  C 622.25 638.32 622.26 632.94 622.30 628.02
  Q 622.58 594.81 622.47 589.50
  C 622.41 586.17 622.88 582.50 621.10 580.84
  Q 618.46 578.37 615.42 578.15
  A 0.61 0.61 0.0 0 1 614.85 577.54
  L 614.85 573.88
  A 0.56 0.56 0.0 0 1 615.41 573.32
  Q 631.68 573.42 634.50 573.41
  Q 637.01 573.41 638.69 575.58
  C 647.26 586.66 660.93 603.90 672.64 617.32
  Z"
/>
<path fill="#24673b" d="
  M 455.29 574.12
  A 0.77 0.76 88.5 0 1 456.07 573.30
  Q 467.81 573.56 490.38 573.21
  Q 494.98 573.14 502.62 575.02
  C 526.87 581.00 534.99 606.90 522.96 627.16
  C 516.94 637.32 504.21 643.30 492.48 643.37
  Q 460.62 643.54 456.12 643.48
  A 0.42 0.41 83.8 0 1 455.72 643.15
  Q 454.94 639.64 457.22 638.88
  C 460.75 637.71 462.90 635.66 462.92 631.76
  Q 463.05 616.82 462.75 585.02
  C 462.71 579.99 460.17 579.01 456.18 577.91
  A 0.89 0.88 -85.1 0 1 455.53 577.12
  L 455.29 574.12
  Z
  M 479.81 580.14
  A 1.04 1.04 0.0 0 0 478.91 581.17
  Q 478.84 624.13 478.92 630.88
  C 478.96 633.97 478.38 636.08 482.14 636.59
  C 488.90 637.49 496.53 636.76 501.81 632.27
  Q 506.33 628.43 507.82 624.61
  Q 513.11 611.03 509.16 596.52
  Q 506.82 587.90 499.18 583.07
  C 493.99 579.78 485.61 579.39 479.81 580.14
  Z"
/>
<path fill="#24673b" d="
  M 584.40 579.47
  A 0.99 0.99 0.0 0 1 583.40 578.48
  L 583.40 574.28
  A 0.96 0.96 0.0 0 1 584.36 573.32
  L 606.82 573.32
  A 0.71 0.71 0.0 0 1 607.52 574.15
  L 606.96 577.38
  A 0.85 0.85 0.0 0 1 606.30 578.06
  Q 600.37 579.28 600.40 585.59
  Q 600.45 599.22 600.50 612.75
  C 600.53 618.90 599.92 626.23 597.36 631.51
  C 590.65 645.34 572.52 646.65 558.98 643.23
  C 546.81 640.16 540.64 627.97 540.72 616.25
  Q 540.88 591.96 540.61 584.95
  Q 540.50 582.33 540.12 581.60
  C 539.23 579.89 536.97 578.76 535.07 577.88
  A 1.09 1.09 0.0 0 1 534.43 576.89
  L 534.43 573.89
  A 0.57 0.56 -0.0 0 1 535.00 573.33
  L 562.76 573.33
  A 1.20 1.19 -90.0 0 1 563.95 574.53
  L 563.95 578.59
  A 1.60 1.60 0.0 0 1 562.61 580.17
  L 558.82 580.82
  A 2.46 2.45 89.9 0 0 556.80 582.86
  Q 556.49 584.80 556.47 586.50
  Q 556.20 608.98 556.22 616.25
  Q 556.23 618.00 556.63 620.28
  Q 559.45 636.45 575.74 636.11
  Q 585.69 635.90 589.79 626.01
  Q 590.67 623.87 591.04 617.75
  Q 591.39 611.87 591.36 587.27
  Q 591.36 586.23 590.98 583.08
  A 2.12 2.05 -66.6 0 0 590.62 582.12
  C 589.32 580.22 586.64 579.47 584.40 579.47
  Z"
/>
<path fill="#24673b" d="
  M 696.90 578.24
  A 0.80 0.79 -88.1 0 1 696.16 577.44
  L 696.16 573.99
  A 0.67 0.66 -0.0 0 1 696.83 573.33
  L 747.67 573.33
  A 0.64 0.63 -1.9 0 1 748.31 573.92
  L 749.54 589.84
  A 1.06 1.05 -16.8 0 1 749.00 590.84
  C 746.98 591.97 745.06 591.43 744.19 589.13
  C 742.65 585.10 741.71 582.08 737.62 580.45
  A 3.90 3.77 55.8 0 0 736.32 580.18
  L 720.83 579.88
  A 1.58 1.57 0.5 0 0 719.22 581.45
  L 719.22 603.42
  A 0.65 0.65 0.0 0 0 719.87 604.07
  C 726.05 604.06 730.09 604.73 733.58 603.12
  A 3.43 3.41 -7.4 0 0 735.52 600.61
  L 736.14 597.01
  A 1.70 1.69 -80.2 0 1 738.10 595.62
  L 739.72 595.90
  A 1.45 1.45 0.0 0 1 740.92 597.33
  L 740.92 617.64
  A 0.87 0.87 0.0 0 1 740.24 618.49
  L 737.84 619.03
  A 0.63 0.62 -17.6 0 1 737.12 618.66
  L 734.96 613.25
  A 3.61 3.59 -10.8 0 0 731.61 610.98
  L 720.27 610.98
  A 1.06 1.06 0.0 0 0 719.21 612.04
  L 719.21 633.83
  A 1.33 1.33 0.0 0 0 719.55 634.72
  C 722.27 637.77 728.47 636.79 733.22 636.75
  Q 738.66 636.70 740.44 635.71
  C 744.37 633.52 746.12 628.81 747.58 624.74
  A 1.06 1.05 7.6 0 1 748.50 624.04
  L 752.07 623.76
  A 0.72 0.72 0.0 0 1 752.83 624.58
  Q 751.52 634.31 751.06 637.07
  C 750.74 639.04 750.99 640.59 750.99 642.57
  A 0.92 0.91 0.0 0 1 750.07 643.48
  L 696.61 643.48
  A 0.69 0.68 -87.3 0 1 695.93 642.73
  L 696.16 640.21
  A 1.02 1.01 86.0 0 1 696.93 639.32
  Q 697.31 639.24 699.96 637.73
  Q 702.75 636.15 702.99 633.02
  Q 703.21 630.09 702.99 621.84
  C 702.67 609.78 703.02 596.80 702.94 586.05
  C 702.91 581.29 701.75 578.61 696.90 578.24
  Z"
/>
<path fill="#24673b" d="
  M 760.71 573.28
  Q 772.44 573.56 795.01 573.25
  Q 799.61 573.19 807.24 575.08
  C 831.48 581.10 839.55 607.00 827.49 627.24
  C 821.45 637.39 808.72 643.34 796.99 643.39
  Q 765.14 643.51 760.64 643.44
  A 0.42 0.41 83.9 0 1 760.24 643.11
  Q 759.47 639.60 761.75 638.84
  C 765.28 637.68 767.43 635.63 767.46 631.74
  Q 767.61 616.80 767.37 585.01
  C 767.34 579.98 764.80 578.99 760.81 577.89
  A 0.89 0.88 -85.0 0 1 760.16 577.10
  L 759.93 574.10
  A 0.77 0.76 88.6 0 1 760.71 573.28
  Z
  M 784.39 580.13
  A 1.04 1.04 0.0 0 0 783.49 581.17
  Q 783.43 624.16 783.51 630.91
  C 783.55 634.01 782.97 636.12 786.73 636.63
  C 793.50 637.53 801.13 636.80 806.42 632.30
  Q 810.94 628.46 812.43 624.64
  Q 817.72 611.05 813.77 596.52
  Q 811.42 587.90 803.78 583.06
  C 798.58 579.77 790.20 579.38 784.39 580.13
  Z"
/>
<path fill="#24673b" d="
  M 855.38 573.48
  Q 862.75 573.46 869.99 573.42
  A 0.66 0.65 -90.0 0 1 870.64 574.08
  L 870.64 577.18
  A 0.78 0.77 84.6 0 1 870.02 577.94
  Q 863.64 579.21 863.51 584.19
  Q 863.28 592.89 863.28 608.47
  Q 863.28 624.04 863.52 632.74
  Q 863.65 637.73 870.03 639.00
  A 0.78 0.77 -84.6 0 1 870.65 639.76
  L 870.65 642.86
  A 0.66 0.65 90.0 0 1 869.99 643.52
  Q 862.75 643.48 855.38 643.46
  Q 848.02 643.48 840.77 643.52
  A 0.66 0.65 -90.0 0 1 840.12 642.86
  L 840.12 639.76
  A 0.78 0.77 84.6 0 1 840.74 639.00
  Q 847.12 637.73 847.25 632.74
  Q 847.48 624.04 847.48 608.47
  Q 847.48 592.89 847.25 584.19
  Q 847.12 579.21 840.74 577.94
  A 0.78 0.77 -84.6 0 1 840.12 577.18
  L 840.12 574.08
  A 0.66 0.65 90.0 0 1 840.77 573.42
  Q 848.02 573.46 855.38 573.48
  Z"
/>
<path fill="#24673b" d="
  M 894.61 591.52
  Q 894.90 592.80 894.91 593.88
  Q 894.95 596.01 894.91 626.24
  C 894.90 633.76 895.24 637.22 902.60 638.93
  A 1.14 1.12 -1.7 0 1 903.42 639.69
  Q 904.01 641.51 903.69 642.91
  A 0.76 0.76 0.0 0 1 902.95 643.49
  L 879.70 643.49
  A 0.71 0.71 0.0 0 1 878.99 642.78
  L 878.99 640.11
  A 0.85 0.84 -5.4 0 1 879.68 639.28
  Q 885.99 638.03 886.19 630.98
  Q 886.78 610.67 886.15 583.68
  Q 886.12 582.54 885.55 581.74
  Q 883.01 578.15 879.43 577.60
  A 0.77 0.76 4.4 0 1 878.78 576.85
  L 878.78 574.15
  A 0.83 0.83 0.0 0 1 879.61 573.32
  L 899.11 573.32
  A 3.57 3.56 -19.4 0 1 901.89 574.65
  L 936.34 617.28
  A 0.31 0.31 0.0 0 0 936.89 617.09
  Q 936.85 595.65 936.61 585.96
  C 936.50 581.20 933.95 578.68 929.37 577.99
  A 0.81 0.80 4.2 0 1 928.68 577.20
  L 928.68 574.12
  A 0.82 0.81 -0.0 0 1 929.50 573.31
  L 952.66 573.31
  A 0.19 0.18 0.0 0 1 952.85 573.49
  L 952.85 577.83
  A 0.39 0.38 -88.0 0 1 952.44 578.22
  C 946.96 577.78 945.32 580.87 945.24 586.08
  C 944.96 605.16 945.11 624.33 945.20 643.61
  A 0.63 0.63 0.0 0 1 944.57 644.24
  L 939.05 644.24
  A 3.27 3.25 70.4 0 1 936.52 643.03
  L 894.81 591.43
  A 0.11 0.11 0.0 0 0 894.61 591.52
  Z"
/>
</svg>
